<svg version="1.0" xmlns="http://www.w3.org/2000/svg"
 width="512.000000pt" height="512.000000pt" viewBox="0 0 512.000000 512.000000"
 preserveAspectRatio="xMidYMid meet">

<g transform="translate(0.000000,512.000000) scale(0.100000,-0.100000)"
fill="#000080" stroke="none">
<path d="M710 5073 c1 -108 86 -266 184 -342 60 -47 146 -89 199 -97 20 -4 37
-8 37 -10 0 -2 -22 -36 -49 -76 -66 -100 -106 -181 -146 -301 -65 -193 -65
-199 -65 -1148 0 -508 4 -899 10 -960 44 -450 228 -898 515 -1255 167 -208
396 -408 620 -542 l70 -42 -1042 0 -1043 0 0 -150 0 -150 2560 0 2560 0 0 150
0 150 -435 0 -435 0 0 1828 c0 2025 3 1915 -66 2122 -37 110 -89 216 -155 312
-21 32 -39 59 -39 62 0 2 17 6 38 10 59 9 172 70 225 120 88 85 144 194 154
302 l6 64 -152 0 -151 0 0 -25 c0 -32 -31 -93 -62 -122 -47 -44 -88 -53 -243
-53 -144 0 -145 0 -195 31 -115 71 -285 129 -450 154 -137 21 -1063 21 -1200
0 -165 -25 -335 -83 -450 -154 l-50 -31 -148 0 c-134 0 -152 2 -192 23 -57 29
-100 83 -107 136 l-6 41 -148 0 -149 0 0 -47z m2455 -269 l30 -10 -75 -40
c-92 -48 -214 -137 -299 -218 -70 -68 -193 -225 -231 -298 -14 -27 -27 -48
-30 -48 -3 0 -16 21 -30 47 -35 68 -133 197 -204 272 -77 80 -229 195 -324
245 -41 21 -72 40 -69 42 23 23 1165 30 1232 8z m-1525 -224 c157 -43 340
-151 460 -270 127 -128 229 -307 277 -485 24 -93 26 -119 31 -352 l4 -253 148
0 148 0 4 253 c5 233 7 259 31 352 82 305 281 549 562 685 95 47 226 90 271
90 26 0 155 -132 213 -219 162 -239 204 -558 115 -869 -30 -107 -110 -274
-171 -362 -177 -249 -451 -430 -753 -496 -73 -16 -130 -19 -415 -19 -356 0
-397 4 -556 56 -192 62 -360 169 -507 322 -171 179 -274 387 -318 641 -24 134
-15 331 20 450 34 113 81 213 139 295 62 88 175 201 202 201 11 0 54 -9 95
-20z m-304 -1826 c115 -111 235 -195 389 -269 231 -113 371 -144 672 -152
l211 -6 5 -511 c5 -564 7 -589 76 -795 82 -245 242 -487 424 -642 40 -34 77
-66 82 -71 26 -26 -312 18 -481 62 -827 217 -1440 930 -1533 1782 -6 54 -11
252 -11 440 l0 343 42 -50 c22 -27 79 -86 124 -131z m2609 -1762 c-3 -3 -38
11 -78 31 -139 69 -250 212 -282 364 -9 42 -15 127 -15 221 l0 152 -150 0
-150 0 0 -159 c0 -97 6 -192 15 -246 57 -323 302 -585 623 -665 l42 -11 0
-185 0 -184 -42 6 c-65 10 -203 52 -285 85 -255 106 -511 368 -619 632 -84
208 -94 295 -94 852 l0 452 113 22 c334 66 647 246 856 493 l66 78 3 -967 c1
-531 0 -968 -3 -971z"/>
<path d="M1750 3966 c-211 -57 -270 -309 -107 -452 53 -47 102 -64 178 -64
233 1 342 298 167 455 -68 62 -155 84 -238 61z"/>
<path d="M3250 3969 c-92 -18 -180 -108 -200 -203 -34 -164 88 -315 255 -316
182 0 310 179 250 350 -43 122 -175 195 -305 169z"/>
</g>
</svg>