<?xml version="1.0" standalone="no"?>
<!DOCTYPE svg PUBLIC "-//W3C//DTD SVG 20010904//EN"
 "http://www.w3.org/TR/2001/REC-SVG-20010904/DTD/svg10.dtd">
<svg version="1.0" xmlns="http://www.w3.org/2000/svg"
 width="864.000000pt" height="864.000000pt" viewBox="0 0 864.000000 864.000000"
 preserveAspectRatio="xMidYMid meet">

<g transform="translate(0.000000,864.000000) scale(0.100000,-0.100000)"
fill="#750D37" stroke="none">
<path d="M2123 7308 c-54 -67 -92 -262 -132 -688 -33 -343 -61 -918 -61 -1281
l0 -166 -59 -16 c-238 -66 -652 -554 -940 -1108 -170 -328 -243 -584 -197
-694 18 -41 42 -55 98 -55 60 0 127 34 262 134 64 47 117 86 119 86 1 0 2 -84
2 -188 0 -209 13 -277 63 -333 21 -24 35 -30 68 -31 52 0 88 19 145 79 60 63
88 101 143 197 l45 79 6 -39 c37 -214 116 -399 191 -445 101 -62 193 51 264
329 6 23 12 42 15 42 2 0 13 -30 26 -67 30 -92 102 -253 152 -338 135 -230
297 -412 511 -572 217 -162 424 -263 746 -364 l75 -24 1 -67 0 -67 -90 -60
c-50 -32 -110 -77 -134 -100 -61 -59 -56 -101 12 -101 17 0 99 36 177 77 3 2
9 -29 13 -68 8 -86 23 -123 53 -127 29 -4 56 39 79 127 10 36 19 68 20 70 2 2
20 -10 41 -26 96 -75 183 -106 183 -65 0 26 -48 94 -133 190 -77 86 -78 89
-62 168 4 20 6 20 102 8 131 -18 655 -18 786 0 96 12 98 12 102 -8 16 -79 15
-82 -62 -168 -85 -96 -133 -164 -133 -190 0 -35 52 -21 140 37 46 30 84 54 85
52 1 -1 9 -32 19 -68 23 -88 50 -131 79 -127 30 4 45 41 53 127 4 39 10 70 13
68 78 -41 160 -77 177 -77 67 0 72 42 13 101 -22 22 -79 65 -127 96 -48 31
-90 60 -93 66 -4 5 -6 37 -5 71 l1 61 75 24 c367 114 633 256 867 460 243 212
444 514 543 814 12 38 24 66 26 64 3 -2 15 -43 28 -91 81 -293 210 -376 317
-203 50 81 99 229 124 371 l6 39 45 -78 c106 -186 198 -275 285 -275 40 0 51
4 73 31 49 57 61 124 61 331 0 104 1 188 2 188 2 0 55 -38 118 -85 142 -105
184 -127 250 -133 64 -5 92 9 111 53 73 175 -164 727 -529 1230 -232 319 -455
529 -608 572 l-59 16 0 171 c-1 653 -67 1548 -136 1825 -17 69 -46 135 -64
146 -20 12 -115 -17 -215 -66 -133 -64 -253 -157 -405 -310 l-125 -125 -91 45
c-287 145 -868 254 -1354 254 -487 0 -1065 -108 -1361 -256 l-86 -43 -124 126
c-138 139 -259 235 -376 297 -123 65 -230 96 -250 71z m1160 -1395 c252 -74
447 -321 447 -566 0 -57 -12 -77 -45 -77 -31 0 -45 19 -45 60 0 110 -70 268
-155 354 -93 93 -209 145 -340 153 -265 17 -508 -178 -546 -437 -16 -113 -21
-125 -50 -128 -46 -5 -62 22 -54 92 15 143 70 266 162 366 137 147 304 216
496 204 43 -3 102 -12 130 -21z m2410 0 c92 -27 177 -76 247 -140 116 -108
181 -231 201 -383 10 -73 9 -83 -7 -101 -11 -12 -28 -19 -43 -17 -29 3 -34 16
-50 128 -38 259 -281 454 -546 437 -133 -8 -249 -62 -344 -158 -84 -86 -150
-240 -151 -349 0 -41 -15 -60 -45 -60 -33 0 -45 20 -45 77 0 271 237 539 517
583 73 11 199 3 266 -17z m-1262 -553 c35 -11 79 -29 98 -40 33 -21 34 -23 28
-73 -12 -115 -129 -393 -182 -435 -35 -28 -75 -28 -110 0 -53 42 -170 320
-182 434 -5 49 -4 53 23 70 46 30 155 63 210 64 29 0 80 -9 115 -20z m39 -851
c544 -67 978 -465 1091 -1000 28 -134 31 -361 6 -490 -104 -527 -516 -930
-1046 -1020 -85 -15 -317 -15 -402 0 -190 32 -399 121 -550 233 -258 191 -433
468 -496 787 -25 129 -22 356 6 490 136 645 743 1081 1391 1000z"/>
</g>
</svg>